<?xml version="1.0" standalone="no"?>
<!DOCTYPE svg PUBLIC "-//W3C//DTD SVG 20010904//EN"
 "http://www.w3.org/TR/2001/REC-SVG-20010904/DTD/svg10.dtd">
<svg version="1.0" xmlns="http://www.w3.org/2000/svg"
 width="940.000000pt" height="940.000000pt" viewBox="0 0 940.000000 940.000000"
 preserveAspectRatio="xMidYMid meet">
<metadata>
Created by potrace 1.14, written by Peter Selinger 2001-2017
</metadata>
<g transform="translate(0.000000,940.000000) scale(0.100000,-0.100000)"
fill="#000000" stroke="none">
<path d="M4457 9234 c-2 -2 -51 -5 -109 -6 -58 -2 -105 -5 -103 -8 2 -3 -20
-6 -48 -7 -106 -2 -147 -6 -147 -16 0 -5 -6 -5 -13 2 -8 6 -17 8 -20 5 -3 -4
-25 -8 -49 -10 -84 -6 -122 -14 -130 -26 -6 -11 -8 -10 -8 0 0 10 -10 11 -37
6 -21 -4 -50 -8 -65 -8 -16 -1 -28 -4 -28 -7 0 -3 -6 -6 -12 -7 -35 -4 -87
-11 -118 -18 -19 -4 -43 -7 -52 -8 -10 0 -18 -3 -18 -6 0 -4 -6 -7 -12 -7 -36
-2 -93 -16 -96 -23 -2 -5 -10 -6 -17 -4 -8 3 -20 2 -27 -2 -7 -5 -22 -9 -33
-10 -11 -2 -43 -9 -72 -17 -28 -8 -54 -12 -57 -9 -3 3 -6 1 -6 -5 0 -5 -6 -10
-12 -11 -7 0 -20 -3 -28 -5 -8 -2 -28 -7 -45 -12 -16 -4 -36 -12 -42 -18 -7
-5 -13 -6 -13 -2 0 4 -6 2 -13 -4 -8 -6 -17 -8 -20 -4 -4 3 -13 0 -22 -7 -8
-7 -15 -9 -15 -6 0 4 -10 1 -22 -6 -13 -6 -32 -13 -42 -15 -11 -2 -26 -9 -35
-16 -12 -10 -13 -9 -6 3 8 13 7 13 -9 0 -10 -8 -23 -15 -30 -16 -6 -1 -33 -11
-61 -22 -27 -11 -53 -19 -57 -18 -4 0 -16 -7 -27 -16 -11 -9 -22 -14 -24 -11
-3 2 -27 -6 -54 -18 -26 -13 -51 -22 -55 -21 -5 1 -8 -2 -8 -8 0 -6 -3 -9 -7
-9 -5 1 -11 0 -15 -1 -5 -1 -11 -3 -15 -4 -5 -1 -32 -14 -60 -28 -29 -15 -53
-24 -53 -21 0 3 -8 -1 -17 -9 -10 -9 -27 -18 -38 -20 -11 -2 -19 -10 -17 -17
1 -7 -2 -10 -7 -6 -9 5 -124 -48 -141 -65 -3 -3 -30 -18 -60 -33 -75 -38 -120
-65 -137 -83 -8 -8 -19 -12 -24 -8 -5 3 -12 -2 -15 -10 -3 -9 -10 -16 -15 -16
-18 0 -99 -56 -92 -64 5 -4 3 -6 -2 -5 -16 5 -76 -31 -70 -42 4 -5 3 -8 -2 -7
-16 4 -53 -14 -48 -23 4 -5 -1 -9 -9 -9 -8 0 -25 -10 -37 -22 -12 -13 -18 -16
-14 -8 5 8 -6 1 -25 -17 -18 -18 -37 -30 -42 -27 -4 3 -8 -2 -8 -10 0 -9 -4
-16 -10 -16 -9 0 -28 -14 -64 -45 -6 -6 -27 -23 -46 -39 -85 -69 -137 -115
-198 -173 -36 -35 -69 -63 -74 -63 -5 0 -7 -4 -4 -8 3 -5 -5 -15 -18 -22 -13
-7 -29 -23 -36 -36 -7 -13 -17 -21 -21 -19 -4 3 -10 -4 -14 -14 -3 -11 -15
-23 -25 -26 -11 -3 -19 -9 -17 -13 1 -4 -17 -27 -41 -51 -23 -23 -42 -45 -42
-47 0 -3 -11 -15 -25 -28 -14 -13 -25 -28 -25 -34 0 -5 -7 -12 -15 -16 -8 -3
-15 -13 -15 -21 0 -9 -4 -13 -10 -10 -5 3 -10 2 -10 -3 0 -6 -15 -27 -34 -48
-19 -21 -32 -42 -30 -46 2 -3 -5 -9 -16 -13 -11 -3 -20 -14 -20 -23 0 -10 -9
-24 -20 -32 -11 -8 -20 -18 -20 -23 0 -8 -12 -25 -60 -83 -5 -7 -6 -15 -3 -18
4 -3 2 -6 -4 -6 -6 0 -16 -13 -23 -30 -7 -16 -17 -27 -23 -23 -6 4 -8 0 -4
-10 4 -11 1 -17 -9 -17 -8 0 -13 -4 -10 -9 3 -5 -7 -21 -22 -37 -15 -15 -20
-24 -12 -19 8 5 4 -7 -10 -26 -14 -18 -34 -52 -45 -74 -11 -22 -26 -45 -34
-51 -8 -6 -11 -16 -7 -22 4 -7 2 -12 -5 -12 -7 0 -10 -3 -6 -6 3 -4 -1 -13 -9
-21 -8 -8 -12 -19 -9 -24 4 -5 -1 -9 -10 -9 -9 0 -14 -4 -11 -9 6 -10 -16 -61
-26 -61 -5 0 -8 -9 -8 -20 0 -11 -4 -20 -10 -20 -5 0 -9 -3 -8 -7 1 -5 -4 -21
-11 -38 -7 -16 -11 -30 -9 -30 1 0 -8 -15 -22 -34 -13 -19 -17 -31 -9 -26 7 5
5 -1 -5 -13 -11 -12 -16 -25 -13 -28 3 -4 -1 -13 -9 -21 -8 -8 -12 -19 -9 -24
4 -5 1 -9 -5 -9 -6 0 -8 -4 -5 -10 3 -5 2 -10 -4 -10 -6 0 -8 -6 -5 -14 3 -8
0 -17 -5 -21 -6 -3 -9 -11 -6 -16 4 -5 2 -9 -4 -9 -5 0 -12 -18 -16 -40 -4
-22 -11 -40 -16 -40 -6 0 -7 -4 -4 -10 3 -5 0 -10 -7 -10 -9 0 -9 -3 2 -10 12
-7 12 -10 1 -10 -7 0 -11 -6 -8 -14 3 -8 1 -16 -5 -18 -5 -2 -12 -38 -14 -81
-1 -42 -6 -82 -9 -87 -3 -6 -3 -10 2 -10 9 0 8 -80 -2 -117 -3 -12 -1 -25 5
-28 7 -4 6 -14 -1 -28 -9 -16 -9 -22 -1 -25 7 -2 9 -10 4 -20 -9 -19 -8 -59 1
-69 4 -3 2 -14 -3 -24 -7 -12 -7 -20 0 -24 7 -4 7 -12 2 -18 -10 -15 -10 -27
2 -46 6 -10 6 -16 -2 -19 -7 -2 -8 -11 -2 -27 6 -15 6 -27 0 -30 -6 -3 -5 -16
0 -31 6 -14 6 -23 1 -20 -9 6 -7 -56 3 -72 2 -4 1 -14 -4 -22 -4 -7 -4 -24 1
-37 5 -14 5 -23 -1 -23 -6 0 -6 -9 -1 -22 5 -13 5 -32 1 -43 -4 -11 -5 -24 -2
-29 7 -13 8 -136 0 -136 -4 0 -3 -14 2 -31 8 -26 7 -30 -7 -25 -13 6 -14 4 -3
-9 13 -15 15 -65 6 -112 -3 -13 0 -23 5 -23 6 0 5 -9 -2 -22 -8 -16 -9 -23 -1
-26 7 -2 8 -11 3 -25 -8 -22 -7 -54 3 -64 3 -3 1 -14 -4 -24 -7 -12 -7 -20 0
-24 7 -4 7 -12 2 -18 -10 -15 -10 -27 2 -46 6 -10 6 -16 -2 -19 -7 -2 -8 -11
-2 -27 6 -15 6 -27 0 -30 -6 -3 -5 -16 0 -31 6 -14 6 -23 1 -20 -9 6 -7 -56 3
-72 2 -4 1 -14 -4 -22 -4 -7 -4 -24 1 -37 5 -14 5 -23 -1 -23 -6 0 -6 -9 -1
-22 5 -13 5 -32 1 -43 -4 -11 -5 -24 -2 -29 7 -13 7 -121 -1 -133 -4 -7 -3
-14 2 -17 13 -8 1 -47 -13 -40 -6 3 -4 0 4 -8 8 -7 16 -24 18 -38 1 -14 3 -31
4 -37 1 -7 5 -13 10 -13 5 0 7 -4 4 -9 -3 -5 1 -25 9 -44 8 -19 11 -37 8 -41
-4 -3 -1 -6 6 -6 7 0 9 -5 6 -10 -3 -5 -1 -10 5 -10 6 0 8 -5 5 -10 -4 -6 -1
-17 5 -25 7 -8 9 -15 4 -15 -5 0 -4 -4 2 -8 7 -4 14 -18 15 -32 2 -14 10 -31
17 -39 11 -12 11 -15 0 -22 -10 -7 -9 -9 5 -9 10 0 15 -5 12 -10 -3 -5 -1 -10
5 -10 7 0 10 -6 7 -12 -2 -7 5 -26 16 -42 12 -16 16 -27 11 -23 -6 3 -11 0
-11 -8 0 -8 5 -13 11 -12 6 1 10 -6 10 -15 -1 -10 2 -18 6 -18 5 0 14 -16 20
-35 6 -19 16 -35 21 -35 5 0 9 -9 9 -19 0 -11 5 -21 10 -23 6 -2 12 -14 15
-27 2 -13 12 -30 22 -38 10 -8 11 -11 4 -7 -10 5 -8 -3 5 -22 12 -16 24 -37
27 -46 4 -10 11 -18 17 -18 6 0 9 -4 6 -9 -3 -4 6 -23 19 -41 13 -18 22 -37
19 -41 -3 -5 0 -9 7 -9 6 0 9 -8 6 -19 -3 -13 0 -18 8 -15 7 3 18 -8 25 -25 7
-17 16 -31 21 -31 5 0 9 -9 9 -21 0 -11 4 -17 10 -14 5 3 10 -1 10 -9 0 -9 3
-16 8 -16 4 0 13 -14 20 -30 8 -17 18 -27 24 -23 7 4 9 -2 5 -16 -3 -13 -3
-21 0 -18 7 7 35 -23 52 -55 8 -15 18 -25 23 -22 5 3 7 2 6 -3 -4 -14 23 -54
33 -48 5 4 9 -3 9 -14 0 -12 5 -21 11 -21 5 0 7 -4 4 -10 -3 -5 1 -10 9 -10 9
0 16 -6 16 -14 0 -8 7 -17 16 -20 9 -4 14 -9 11 -12 -7 -8 18 -34 32 -34 6 0
7 -7 4 -17 -4 -11 -3 -14 5 -9 7 4 12 3 12 -2 0 -5 23 -33 50 -62 28 -29 50
-56 50 -61 0 -5 7 -9 15 -9 8 0 15 -4 15 -9 0 -12 58 -71 71 -71 5 0 7 -5 4
-10 -3 -6 4 -14 17 -19 13 -6 20 -10 16 -10 -5 -1 0 -9 10 -19 9 -11 20 -17
24 -15 5 2 8 -3 8 -11 0 -9 7 -16 16 -16 8 0 13 -4 10 -9 -4 -5 -2 -11 3 -13
11 -4 113 -91 163 -140 21 -20 38 -33 38 -30 1 4 9 -3 20 -16 11 -13 24 -21
30 -17 6 4 9 3 8 -2 -2 -4 1 -9 6 -10 5 0 13 -8 18 -17 5 -9 15 -13 21 -10 7
4 9 4 5 -1 -8 -8 15 -35 30 -35 6 0 13 -7 16 -16 4 -9 10 -14 13 -10 4 4 13
-4 20 -16 7 -13 12 -18 13 -11 0 7 16 -2 35 -20 19 -18 39 -32 45 -32 5 0 16
-9 25 -20 9 -11 14 -13 10 -5 -6 13 -5 13 7 0 18 -21 131 -95 141 -92 4 1 7
-2 7 -8 0 -5 5 -10 11 -10 6 0 29 -13 52 -28 23 -16 67 -42 97 -58 30 -16 60
-35 68 -42 13 -12 28 -16 45 -13 5 1 5 -4 1 -10 -5 -9 -2 -10 9 -6 11 4 17 1
17 -9 0 -8 5 -12 10 -9 6 3 10 1 10 -4 0 -6 3 -10 8 -9 13 4 52 -13 52 -23 0
-5 7 -9 15 -9 9 0 39 -12 68 -27 29 -15 59 -28 67 -29 8 -2 16 -8 18 -13 2 -6
9 -11 17 -11 18 0 109 -41 116 -52 3 -5 8 -9 10 -7 2 1 15 -1 29 -5 14 -5 28
-8 33 -7 4 1 7 -4 7 -10 0 -6 7 -8 15 -5 9 3 18 -1 21 -8 3 -8 14 -12 25 -9
10 3 19 1 19 -4 0 -9 6 -11 50 -15 11 -1 20 -8 20 -15 0 -7 6 -10 14 -7 8 3
25 -2 38 -10 14 -9 28 -13 31 -9 4 3 7 1 7 -5 0 -6 9 -9 20 -7 11 2 20 -1 20
-7 0 -5 6 -8 14 -5 16 6 26 -13 26 -49 0 -13 5 -24 10 -24 7 0 7 -7 -1 -21 -8
-15 -8 -19 0 -15 7 5 12 -3 13 -21 2 -46 3 -51 11 -59 4 -4 7 -20 7 -36 0 -15
5 -28 10 -28 6 0 10 -8 10 -18 0 -10 4 -22 9 -28 5 -5 11 -18 13 -29 1 -11 11
-29 21 -39 9 -11 17 -26 17 -33 0 -7 4 -13 9 -13 5 0 12 -8 16 -19 3 -10 13
-28 23 -38 9 -11 28 -35 42 -53 43 -56 57 -70 70 -70 7 0 11 -3 7 -6 -6 -6 77
-94 89 -94 4 0 17 -12 30 -27 13 -16 24 -24 24 -19 0 4 13 -6 29 -23 16 -17
32 -31 36 -31 3 0 27 -14 52 -32 26 -17 52 -31 59 -31 7 0 16 -7 18 -14 3 -8
10 -12 16 -8 5 3 22 -2 37 -12 15 -10 27 -17 28 -15 0 2 13 -1 28 -7 16 -6 33
-9 38 -5 5 3 9 0 9 -6 0 -7 6 -10 14 -7 7 3 25 -1 40 -8 16 -9 24 -10 20 -3
-5 7 -3 8 5 3 16 -10 66 -15 164 -17 46 -1 77 -6 77 -12 0 -6 5 -4 10 4 9 13
10 13 10 0 0 -13 1 -13 10 0 9 13 10 13 10 0 0 -13 1 -13 10 0 8 13 10 13 10
1 0 -12 3 -12 12 -3 16 16 31 15 22 0 -5 -8 -1 -8 10 1 14 12 21 13 38 2 11
-7 17 -8 13 -2 -3 6 0 11 9 11 8 0 17 -6 19 -12 4 -10 6 -9 6 1 1 11 4 11 18
0 10 -8 14 -9 10 -2 -4 6 -3 14 3 18 5 3 10 1 10 -5 0 -6 5 -8 10 -5 6 4 37 7
70 8 45 2 60 -2 64 -13 3 -13 4 -13 5 0 1 13 20 15 118 12 73 -1 122 -7 132
-15 12 -9 13 -9 7 1 -4 7 -2 12 8 12 8 0 17 -6 19 -12 4 -10 6 -9 6 1 1 11 4
11 18 0 11 -10 14 -10 9 -1 -4 7 -2 12 6 12 8 0 20 -6 27 -12 8 -7 11 -8 8 -3
-3 6 35 11 104 12 80 1 107 -2 103 -10 -5 -8 -2 -7 7 1 7 6 21 12 32 12 11 0
15 4 11 12 -5 7 -3 8 6 3 17 -11 70 -13 63 -3 -2 5 6 9 19 9 52 3 109 19 103
29 -3 5 4 7 15 5 11 -2 20 1 20 6 0 6 5 7 10 4 6 -3 10 0 10 7 0 11 2 10 9 0
7 -11 9 -10 15 3 3 9 10 14 15 11 5 -4 16 1 24 9 9 8 20 15 26 15 6 0 11 5 11
10 0 6 7 10 15 10 8 0 15 5 15 11 0 5 5 7 10 4 6 -3 10 -2 10 4 0 5 9 12 20
16 10 3 35 22 55 42 19 19 35 33 35 30 0 -3 16 10 35 29 20 19 41 34 47 34 6
0 9 3 5 6 -8 8 18 34 34 34 7 0 10 3 6 6 -3 4 12 23 33 43 22 21 40 43 40 49
0 7 5 12 10 12 6 0 10 6 10 13 0 7 9 18 20 25 11 7 20 17 20 23 0 6 9 24 21
40 11 16 17 29 12 29 -4 0 -3 4 3 8 13 9 56 92 48 92 -4 0 1 11 10 25 12 18
13 25 4 25 -10 0 -10 2 -1 8 7 4 15 19 17 32 2 14 5 25 6 25 4 0 12 43 13 73
1 17 5 32 10 32 4 0 6 4 3 9 -5 8 40 25 70 26 6 0 20 7 30 15 10 8 15 10 11 3
-5 -8 -1 -8 18 0 14 7 25 16 25 20 0 5 4 6 9 3 4 -3 32 4 62 15 30 11 86 32
124 46 39 14 71 30 73 34 2 4 10 5 18 2 8 -3 14 0 14 6 0 6 3 10 8 9 7 -1 46
13 99 39 18 8 38 11 45 7 7 -4 9 -3 5 1 -8 9 56 45 79 45 7 0 14 3 16 8 2 4
36 22 76 41 39 19 72 39 72 44 0 5 8 3 17 -4 11 -10 14 -10 9 -1 -5 8 2 16 19
22 14 5 24 14 21 18 -3 5 4 8 16 7 12 -1 30 7 40 17 10 10 23 16 28 13 6 -4
10 -2 10 3 0 5 12 15 28 22 15 8 39 23 55 33 15 10 27 16 27 13 0 -3 10 3 23
14 12 10 24 19 27 18 9 -3 49 35 44 43 -2 4 5 5 16 2 11 -3 20 0 20 6 0 6 7
11 15 11 8 0 15 4 15 10 0 5 11 12 25 16 14 3 23 9 21 13 -3 4 9 13 25 20 16
7 27 17 23 22 -5 8 17 14 39 10 5 -1 6 3 2 9 -6 9 8 14 28 11 5 -1 6 3 2 9 -3
5 -1 10 5 10 6 0 8 6 4 13 -4 6 -4 9 1 5 7 -7 81 44 97 67 4 5 8 6 8 2 0 -5
14 7 31 25 18 18 28 26 24 18 -5 -8 10 3 33 25 22 22 53 50 69 62 53 42 102
91 96 97 -4 3 4 6 16 6 17 0 21 4 17 16 -3 8 -2 12 3 9 5 -3 17 5 25 17 9 12
16 20 16 16 0 -4 14 7 30 24 17 16 30 31 30 34 0 6 39 44 45 44 3 0 4 3 3 6
-2 3 7 11 19 17 12 7 23 17 24 22 3 10 39 52 92 107 15 16 27 30 27 32 0 5 55
69 87 103 12 13 20 23 17 23 -3 0 5 10 16 23 12 12 29 34 38 49 9 16 20 28 24
28 4 0 8 7 8 15 0 8 5 15 10 15 6 0 10 6 10 13 0 7 8 20 18 29 29 28 41 46 35
52 -4 3 -1 6 5 6 7 0 12 7 12 15 0 8 5 15 11 15 5 0 7 5 4 10 -3 6 1 10 9 10
10 0 13 6 10 15 -4 8 -2 15 4 15 5 0 17 16 26 35 9 19 21 35 27 35 6 0 7 5 4
10 -3 6 -1 10 4 10 6 0 11 6 11 14 0 7 9 25 21 40 11 14 17 30 14 36 -3 5 1
10 10 10 9 0 13 5 10 10 -3 6 -1 10 5 10 6 0 9 4 6 9 -3 5 1 14 9 21 8 7 12
16 9 21 -3 5 -1 9 3 9 5 0 15 16 22 35 7 19 17 35 23 35 5 0 8 6 5 14 -3 8 2
22 11 33 9 10 18 23 19 28 9 36 31 84 36 78 6 -6 11 20 8 40 0 4 4 7 10 7 6 0
8 7 5 16 -4 10 -2 13 6 8 7 -5 9 -2 5 9 -3 9 1 18 10 21 8 4 13 13 9 21 -3 8
-1 15 5 15 6 0 8 4 4 9 -3 5 -1 12 5 16 6 4 8 10 5 15 -3 5 -1 11 5 15 6 4 8
11 5 16 -4 5 -2 9 4 9 6 0 8 7 5 15 -4 8 -1 15 5 15 7 0 11 6 10 13 -1 6 3 26
10 42 7 17 14 38 17 49 2 10 7 23 12 30 5 6 9 22 10 35 0 13 5 27 9 30 4 3 10
15 11 26 2 11 8 24 13 30 5 5 9 14 9 20 0 5 -5 3 -10 -5 -6 -9 -10 -10 -10 -3
0 6 5 15 10 18 6 4 8 11 5 16 -4 5 -2 9 3 9 6 0 8 9 5 20 -3 12 0 20 6 20 7 0
10 4 7 9 -4 5 0 12 6 14 10 4 10 6 0 6 -9 1 -10 6 -3 19 5 9 12 35 15 56 4 22
10 44 14 50 4 6 7 23 6 39 0 15 2 27 6 27 4 0 6 11 5 25 -2 14 1 27 5 30 5 3
7 12 3 20 -3 8 -1 15 5 15 6 0 8 9 5 21 -4 12 0 25 8 30 9 5 10 9 2 9 -12 0
-12 24 0 36 12 12 8 26 -5 18 -10 -6 -9 -3 0 9 8 9 12 29 10 44 -2 20 1 27 11
25 10 -2 12 1 5 10 -12 15 -12 28 -1 46 5 7 3 12 -3 12 -8 0 -9 7 -5 18 4 9 9
53 11 97 2 44 6 86 9 93 2 6 0 12 -5 12 -6 0 -6 10 -2 23 10 26 8 59 -3 78 -6
11 -5 11 5 2 12 -11 15 -52 22 -251 1 -29 5 -55 10 -58 5 -3 5 -11 1 -17 -11
-17 -13 -37 -4 -37 5 0 7 -12 7 -27 -1 -16 2 -38 6 -51 5 -16 4 -21 -3 -16 -8
5 -8 1 0 -13 6 -11 7 -23 4 -27 -3 -3 -1 -6 7 -6 10 0 10 -3 1 -14 -8 -10 -9
-16 -1 -21 5 -3 10 -11 10 -16 0 -6 -5 -7 -11 -4 -12 8 11 -37 25 -46 4 -4 3
-9 -3 -13 -7 -5 -7 -15 0 -33 5 -14 10 -41 11 -60 1 -18 4 -33 7 -33 4 0 8
-10 9 -22 2 -23 9 -59 12 -68 1 -3 2 -9 1 -13 -1 -4 4 -18 11 -30 6 -12 12
-33 13 -47 1 -14 5 -32 10 -40 5 -8 10 -19 11 -25 5 -43 8 -45 13 -10 4 22 3
45 -2 52 -4 6 -4 14 2 17 6 4 6 18 1 34 -4 17 -3 36 2 47 8 13 7 16 -1 11 -8
-5 -8 0 -2 17 6 14 8 27 6 29 -5 5 -6 86 -2 118 2 14 0 33 -5 42 -4 9 -4 19 1
22 4 3 5 24 1 46 -4 22 -5 40 -1 40 8 0 7 88 -2 96 -3 4 -2 15 4 25 6 12 6 19
0 19 -6 0 -6 11 -1 30 5 16 5 32 0 35 -5 3 -5 18 -1 33 4 15 4 39 0 54 -4 16
-4 28 0 28 7 0 4 86 -4 108 -2 6 -1 12 3 12 4 0 6 30 4 67 -4 107 -3 185 2
191 3 2 1 12 -4 22 -5 10 -6 20 -3 24 8 8 6 112 -2 126 -3 6 -2 10 2 10 5 0 8
15 6 33 -2 17 -4 39 -4 47 2 83 0 123 -4 130 -3 5 -1 12 5 15 8 5 8 11 0 20
-8 9 -8 15 0 20 6 3 8 10 5 15 -5 8 -10 207 -5 225 1 6 2 41 1 79 -1 54 -4 67
-13 58 -10 -10 -13 -22 -19 -82 -1 -8 -6 -20 -11 -27 -5 -7 -7 -17 -3 -23 3
-5 2 -10 -4 -10 -5 0 -10 -8 -9 -17 0 -10 -3 -31 -7 -48 -3 -16 -7 -38 -8 -47
-1 -10 -5 -18 -10 -18 -4 0 -5 -4 -2 -10 3 -5 3 -16 -2 -22 -4 -7 -8 -25 -8
-40 0 -15 -4 -30 -7 -33 -4 -4 -4 -13 -1 -21 3 -8 -1 -14 -8 -14 -11 0 -11 -3
1 -10 9 -6 11 -10 3 -10 -7 0 -10 -6 -7 -14 3 -8 1 -24 -6 -35 -8 -16 -8 -21
2 -21 9 0 9 -3 -2 -10 -8 -5 -10 -10 -5 -10 6 0 3 -5 -5 -10 -11 -7 -11 -10
-2 -10 7 0 10 -5 6 -11 -3 -6 -8 -33 -10 -61 -2 -27 -6 -53 -9 -59 -4 -5 0 -9
7 -9 8 0 9 -3 3 -8 -10 -7 -11 -18 -16 -144 -2 -38 -7 -68 -11 -68 -7 0 -12
53 -10 108 1 15 -3 20 -11 15 -7 -4 -7 0 2 10 10 13 11 20 2 30 -6 8 -8 17 -4
21 11 11 12 36 1 36 -6 0 -8 6 -5 14 3 7 1 18 -5 24 -8 8 -6 13 6 18 13 5 14
9 6 14 -7 4 -12 20 -12 34 0 15 -5 29 -10 32 -5 3 -4 12 3 20 9 11 9 14 0 14
-7 0 -11 6 -10 13 4 30 -2 78 -8 74 -5 -3 -8 15 -7 39 0 25 -3 47 -7 50 -5 2
-6 11 -2 19 3 8 1 15 -4 15 -6 0 -9 12 -8 28 1 15 -1 32 -4 37 -3 6 -6 15 -7
20 -4 20 -12 60 -16 75 -1 8 -7 18 -13 22 -6 5 -4 8 5 8 13 0 13 1 0 10 -8 5
-15 19 -15 32 0 13 -4 29 -8 36 -5 6 -5 17 -2 22 3 6 2 10 -4 10 -6 0 -8 6 -5
14 3 8 1 17 -5 21 -6 3 -11 17 -11 31 0 13 -4 24 -9 24 -4 0 -7 12 -5 26 1 17
-2 24 -10 21 -7 -3 -13 1 -13 9 0 8 5 14 11 14 7 0 8 3 1 8 -14 10 -35 59 -35
82 0 11 -5 20 -11 20 -6 0 -9 7 -5 15 3 8 1 15 -5 15 -6 0 -7 5 -4 10 3 6 1
10 -5 10 -6 0 -8 5 -5 10 3 6 1 10 -5 10 -6 0 -8 5 -4 12 4 6 -1 17 -11 25
-13 9 -14 13 -5 13 9 0 8 4 -5 14 -11 8 -16 19 -12 30 4 10 1 19 -8 22 -8 4
-13 10 -10 14 3 5 0 14 -7 22 -7 7 -14 20 -16 28 -2 8 -8 17 -13 18 -6 2 -4
11 3 20 8 10 9 13 1 9 -7 -5 -16 5 -24 28 -7 19 -17 35 -22 35 -5 0 -7 7 -3
15 3 8 1 15 -4 15 -5 0 -12 10 -16 22 -3 12 -13 28 -20 36 -8 7 -12 18 -9 23
4 5 1 9 -4 9 -6 0 -11 7 -11 15 0 8 -5 15 -11 15 -5 0 -8 4 -5 9 3 5 -1 14 -9
21 -8 7 -15 19 -15 27 0 9 -5 11 -12 7 -8 -5 -7 0 2 11 8 10 11 16 5 13 -11
-6 -28 10 -33 31 -1 7 -9 19 -17 27 -7 8 -17 23 -20 34 -3 11 -10 20 -15 20
-9 0 -25 39 -22 53 1 4 -5 7 -14 7 -8 0 -12 5 -9 10 3 6 2 10 -4 10 -5 0 -12
8 -15 18 -3 9 -17 29 -31 45 -14 15 -22 27 -18 27 4 1 -3 10 -17 21 -14 12
-24 23 -22 26 6 8 -43 61 -52 56 -5 -3 -6 -1 -2 5 6 11 -13 38 -61 88 -13 13
-23 27 -23 31 -1 14 -67 83 -74 76 -3 -3 -6 0 -6 8 0 19 -54 79 -70 79 -8 0
-11 3 -8 6 4 3 -11 23 -33 43 -21 21 -36 41 -32 45 3 3 2 6 -4 6 -5 0 -46 35
-91 78 -118 113 -150 141 -156 134 -3 -3 -6 2 -6 11 0 10 -4 17 -9 17 -4 0
-20 11 -35 25 -14 13 -26 22 -26 20 0 -2 -12 7 -27 21 -16 14 -35 32 -44 40
-9 8 -21 14 -27 14 -7 0 -12 6 -12 14 0 15 -36 32 -55 27 -5 -1 -7 0 -3 4 8 9
-16 35 -31 35 -6 0 -11 5 -11 10 0 6 -7 10 -15 10 -8 0 -15 5 -15 10 0 6 -7
10 -16 10 -8 0 -12 5 -9 10 3 6 -1 10 -9 10 -9 0 -16 5 -16 12 0 6 -3 9 -6 5
-4 -3 -12 -1 -20 6 -33 29 -44 37 -54 37 -5 0 -10 5 -10 11 0 5 -4 8 -9 5 -4
-3 -16 3 -25 13 -10 11 -31 25 -47 31 -16 7 -29 17 -29 22 0 5 -4 6 -10 3 -5
-3 -10 -1 -10 4 0 6 -6 11 -13 11 -7 0 -23 9 -35 20 -12 12 -22 17 -22 13 0
-4 -4 -3 -8 2 -6 9 -49 34 -127 74 -16 9 -32 19 -35 22 -6 6 -31 16 -44 17 -5
0 -12 4 -15 9 -3 4 -15 15 -25 23 -17 13 -19 13 -11 0 5 -8 -4 -5 -19 8 -16
12 -32 19 -37 16 -5 -3 -9 -1 -9 5 0 9 -43 28 -46 20 -1 -2 -11 4 -21 14 -11
9 -23 14 -26 11 -4 -4 -9 0 -13 9 -3 9 -12 13 -19 11 -7 -3 -16 0 -20 5 -3 6
-11 9 -16 6 -5 -4 -9 -1 -9 4 0 6 -11 11 -24 11 -13 0 -26 7 -29 15 -4 8 -15
12 -27 10 -11 -2 -20 0 -20 6 0 5 -4 9 -9 9 -5 0 -26 8 -47 17 -22 9 -43 18
-49 19 -5 1 -26 9 -46 18 -20 8 -39 12 -43 9 -3 -4 -6 -2 -6 4 0 10 -82 38
-107 36 -7 0 -13 3 -13 8 0 5 -8 9 -18 9 -10 0 -22 3 -26 7 -6 6 -17 10 -56
17 -8 2 -28 8 -43 15 -15 6 -42 13 -60 17 -18 3 -36 9 -42 15 -5 5 -22 9 -37
9 -15 0 -28 5 -28 11 0 5 -5 7 -10 4 -6 -4 -18 -1 -27 7 -12 9 -15 9 -9 1 4
-7 2 -13 -3 -13 -6 0 -11 5 -11 11 0 6 -6 9 -14 6 -8 -3 -17 -3 -20 1 -4 3
-13 7 -21 9 -28 6 -50 11 -50 13 0 1 -17 3 -39 6 -21 2 -44 9 -52 14 -7 6 -18
10 -26 9 -14 -3 -114 14 -120 21 -2 1 -16 3 -33 5 -16 1 -30 3 -30 5 0 1 -11
3 -25 5 -68 7 -86 11 -92 20 -5 6 -8 5 -8 -3 0 -9 -5 -10 -17 -4 -10 5 -30 8
-45 7 -16 -1 -28 1 -28 5 0 3 -18 6 -40 5 -22 -1 -40 1 -40 4 0 4 -21 6 -48 6
-26 0 -53 4 -59 9 -9 5 -13 4 -13 -5 0 -9 -3 -10 -8 -4 -4 6 -25 11 -47 12
-22 1 -85 4 -140 8 -112 8 -294 13 -298 9z m4630 -3964 c-1 -11 -4 -20 -8 -20
-10 0 -17 23 -11 37 6 19 21 6 19 -17z"/>
<path d="M9055 4640 c3 -5 8 -10 11 -10 2 0 4 5 4 10 0 6 -5 10 -11 10 -5 0
-7 -4 -4 -10z"/>
<path d="M9095 4580 c-3 -5 -1 -10 4 -10 6 0 11 5 11 10 0 6 -2 10 -4 10 -3 0
-8 -4 -11 -10z"/>
<path d="M9066 4522 c-3 -5 1 -9 9 -9 8 0 15 4 15 9 0 4 -4 8 -9 8 -6 0 -12
-4 -15 -8z"/>
<path d="M9034 4462 c4 -3 14 -7 22 -8 9 -1 13 0 10 4 -4 3 -14 7 -22 8 -9 1
-13 0 -10 -4z"/>
<path d="M9110 4460 c0 -5 5 -10 11 -10 5 0 7 5 4 10 -3 6 -8 10 -11 10 -2 0
-4 -4 -4 -10z"/>
<path d="M8987 4279 c7 -7 15 -10 18 -7 3 3 -2 9 -12 12 -14 6 -15 5 -6 -5z"/>
<path d="M8995 4200 c-3 -5 -1 -10 4 -10 6 0 11 5 11 10 0 6 -2 10 -4 10 -3 0
-8 -4 -11 -10z"/>
<path d="M8756 3687 c3 -10 9 -15 12 -12 3 3 0 11 -7 18 -10 9 -11 8 -5 -6z"/>
<path d="M8706 3562 c-3 -5 1 -9 9 -9 8 0 12 4 9 9 -3 4 -7 8 -9 8 -2 0 -6 -4
-9 -8z"/>
<path d="M366 3482 c-3 -5 1 -9 9 -9 8 0 15 4 15 9 0 4 -4 8 -9 8 -6 0 -12 -4
-15 -8z"/>
<path d="M8575 3311 c-3 -5 -2 -12 3 -15 5 -3 9 1 9 9 0 17 -3 19 -12 6z"/>
<path d="M593 3105 c0 -8 4 -12 9 -9 5 3 6 10 3 15 -9 13 -12 11 -12 -6z"/>
<path d="M8414 3062 c4 -3 14 -7 22 -8 9 -1 13 0 10 4 -4 3 -14 7 -22 8 -9 1
-13 0 -10 -4z"/>
<path d="M8380 3006 c0 -2 8 -10 18 -17 15 -13 16 -12 3 4 -13 16 -21 21 -21
13z"/>
<path d="M8355 2951 c-3 -5 -2 -12 3 -15 5 -3 9 1 9 9 0 17 -3 19 -12 6z"/>
<path d="M676 2927 c3 -10 9 -15 12 -12 3 3 0 11 -7 18 -10 9 -11 8 -5 -6z"/>
<path d="M730 2905 c0 -7 30 -13 34 -7 3 4 -4 9 -15 9 -10 1 -19 0 -19 -2z"/>
<path d="M8250 2859 c0 -5 5 -7 10 -4 6 3 10 8 10 11 0 2 -4 4 -10 4 -5 0 -10
-5 -10 -11z"/>
<path d="M8295 2860 c3 -5 8 -10 11 -10 2 0 4 5 4 10 0 6 -5 10 -11 10 -5 0
-7 -4 -4 -10z"/>
<path d="M796 2793 c-6 -14 -5 -15 5 -6 7 7 10 15 7 18 -3 3 -9 -2 -12 -12z"/>
<path d="M855 2780 c-3 -5 -1 -10 4 -10 6 0 11 5 11 10 0 6 -2 10 -4 10 -3 0
-8 -4 -11 -10z"/>
<path d="M895 2740 c-3 -5 -1 -10 4 -10 6 0 11 5 11 10 0 6 -2 10 -4 10 -3 0
-8 -4 -11 -10z"/>
<path d="M8216 2742 c-3 -5 1 -9 9 -9 8 0 12 4 9 9 -3 4 -7 8 -9 8 -2 0 -6 -4
-9 -8z"/>
<path d="M886 2702 c-3 -5 1 -9 9 -9 8 0 12 4 9 9 -3 4 -7 8 -9 8 -2 0 -6 -4
-9 -8z"/>
<path d="M915 2659 c-3 -4 2 -6 10 -5 21 3 28 13 10 13 -9 0 -18 -4 -20 -8z"/>
<path d="M975 2660 c-3 -5 -1 -10 4 -10 6 0 11 5 11 10 0 6 -2 10 -4 10 -3 0
-8 -4 -11 -10z"/>
<path d="M8095 2660 c-3 -5 -1 -10 4 -10 6 0 11 5 11 10 0 6 -2 10 -4 10 -3 0
-8 -4 -11 -10z"/>
<path d="M8135 2660 c-3 -5 -1 -10 4 -10 6 0 11 5 11 10 0 6 -2 10 -4 10 -3 0
-8 -4 -11 -10z"/>
<path d="M976 2622 c-3 -4 4 -9 15 -9 23 -2 25 3 4 10 -8 4 -16 3 -19 -1z"/>
<path d="M1030 2606 c0 -2 7 -7 16 -10 8 -3 12 -2 9 4 -6 10 -25 14 -25 6z"/>
<path d="M1070 2576 c0 -2 8 -10 18 -17 15 -13 16 -12 3 4 -13 16 -21 21 -21
13z"/>
<path d="M7935 2500 c-3 -5 -1 -10 4 -10 6 0 11 5 11 10 0 6 -2 10 -4 10 -3 0
-8 -4 -11 -10z"/>
<path d="M7895 2480 c3 -5 8 -10 11 -10 2 0 4 5 4 10 0 6 -5 10 -11 10 -5 0
-7 -4 -4 -10z"/>
<path d="M1130 2459 c0 -5 5 -7 10 -4 6 3 10 8 10 11 0 2 -4 4 -10 4 -5 0 -10
-5 -10 -11z"/>
<path d="M7930 2459 c0 -5 5 -7 10 -4 6 3 10 8 10 11 0 2 -4 4 -10 4 -5 0 -10
-5 -10 -11z"/>
<path d="M7936 2418 c3 -5 10 -6 15 -3 13 9 11 12 -6 12 -8 0 -12 -4 -9 -9z"/>
<path d="M1153 2395 c0 -8 4 -12 9 -9 5 3 6 10 3 15 -9 13 -12 11 -12 -6z"/>
<path d="M7795 2371 c-3 -5 -2 -12 3 -15 5 -3 9 1 9 9 0 17 -3 19 -12 6z"/>
<path d="M1230 2356 c7 -7 13 -7 20 0 6 6 3 10 -10 10 -13 0 -16 -4 -10 -10z"/>
<path d="M1275 2360 c-3 -5 -1 -10 4 -10 6 0 11 5 11 10 0 6 -2 10 -4 10 -3 0
-8 -4 -11 -10z"/>
<path d="M7840 2320 c-9 -6 -10 -10 -3 -10 6 0 15 5 18 10 8 12 4 12 -15 0z"/>
<path d="M1396 2238 c3 -5 10 -6 15 -3 13 9 11 12 -6 12 -8 0 -12 -4 -9 -9z"/>
<path d="M1269 2223 c-13 -16 -12 -17 4 -4 9 7 17 15 17 17 0 8 -8 3 -21 -13z"/>
<path d="M1427 2199 c7 -7 15 -10 18 -7 3 3 -2 9 -12 12 -14 6 -15 5 -6 -5z"/>
<path d="M1506 2182 c-3 -5 1 -9 9 -9 8 0 15 4 15 9 0 4 -4 8 -9 8 -6 0 -12
-4 -15 -8z"/>
<path d="M7595 2171 c-3 -5 -2 -12 3 -15 5 -3 9 1 9 9 0 17 -3 19 -12 6z"/>
<path d="M7555 2160 c3 -5 8 -10 11 -10 2 0 4 5 4 10 0 6 -5 10 -11 10 -5 0
-7 -4 -4 -10z"/>
<path d="M1493 2115 c0 -8 4 -12 9 -9 5 3 6 10 3 15 -9 13 -12 11 -12 -6z"/>
<path d="M7476 2073 c-6 -14 -5 -15 5 -6 7 7 10 15 7 18 -3 3 -9 -2 -12 -12z"/>
<path d="M7515 2060 c3 -5 8 -10 11 -10 2 0 4 5 4 10 0 6 -5 10 -11 10 -5 0
-7 -4 -4 -10z"/>
<path d="M1616 2022 c-3 -5 1 -9 9 -9 8 0 12 4 9 9 -3 4 -7 8 -9 8 -2 0 -6 -4
-9 -8z"/>
<path d="M7430 1999 c0 -5 5 -7 10 -4 6 3 10 8 10 11 0 2 -4 4 -10 4 -5 0 -10
-5 -10 -11z"/>
<path d="M1796 1942 c-2 -4 -1 -14 4 -22 7 -11 9 -9 7 8 -1 24 -3 26 -11 14z"/>
<path d="M7175 1900 c-3 -5 -1 -10 4 -10 6 0 11 5 11 10 0 6 -2 10 -4 10 -3 0
-8 -4 -11 -10z"/>
<path d="M1870 1880 c0 -5 5 -10 11 -10 5 0 7 5 4 10 -3 6 -8 10 -11 10 -2 0
-4 -4 -4 -10z"/>
<path d="M7155 1850 c-4 -6 -11 -7 -17 -4 -7 4 -8 2 -4 -5 6 -9 11 -9 22 0 14
11 18 19 10 19 -3 0 -8 -5 -11 -10z"/>
<path d="M7266 1838 c3 -5 10 -6 15 -3 13 9 11 12 -6 12 -8 0 -12 -4 -9 -9z"/>
<path d="M7113 1825 c0 -8 4 -12 9 -9 5 3 6 10 3 15 -9 13 -12 11 -12 -6z"/>
<path d="M7185 1800 c-3 -6 1 -7 9 -4 18 7 21 14 7 14 -6 0 -13 -4 -16 -10z"/>
<path d="M2015 1780 c3 -5 8 -10 11 -10 2 0 4 5 4 10 0 6 -5 10 -11 10 -5 0
-7 -4 -4 -10z"/>
<path d="M6975 1780 c-3 -5 -1 -10 4 -10 6 0 11 5 11 10 0 6 -2 10 -4 10 -3 0
-8 -4 -11 -10z"/>
<path d="M2070 1756 c7 -7 13 -7 20 0 6 6 3 10 -10 10 -13 0 -16 -4 -10 -10z"/>
<path d="M2115 1761 c-3 -5 -2 -12 3 -15 5 -3 9 1 9 9 0 17 -3 19 -12 6z"/>
<path d="M6906 1762 c-2 -4 4 -8 14 -8 10 0 16 4 14 8 -3 4 -9 8 -14 8 -5 0
-11 -4 -14 -8z"/>
<path d="M7035 1740 c3 -5 8 -10 11 -10 2 0 4 5 4 10 0 6 -5 10 -11 10 -5 0
-7 -4 -4 -10z"/>
<path d="M2074 1702 c4 -3 14 -7 22 -8 9 -1 13 0 10 4 -4 3 -14 7 -22 8 -9 1
-13 0 -10 -4z"/>
<path d="M6930 1699 c0 -5 5 -7 10 -4 6 3 10 8 10 11 0 2 -4 4 -10 4 -5 0 -10
-5 -10 -11z"/>
<path d="M6966 1702 c-3 -5 1 -9 9 -9 8 0 12 4 9 9 -3 4 -7 8 -9 8 -2 0 -6 -4
-9 -8z"/>
<path d="M2175 1660 c-3 -5 -1 -10 4 -10 6 0 11 5 11 10 0 6 -2 10 -4 10 -3 0
-8 -4 -11 -10z"/>
<path d="M6894 1662 c4 -3 14 -7 22 -8 9 -1 13 0 10 4 -4 3 -14 7 -22 8 -9 1
-13 0 -10 -4z"/>
<path d="M2079 1633 c-13 -16 -12 -17 4 -4 9 7 17 15 17 17 0 8 -8 3 -21 -13z"/>
<path d="M2356 1633 c-6 -14 -5 -15 5 -6 7 7 10 15 7 18 -3 3 -9 -2 -12 -12z"/>
<path d="M2469 1563 c-13 -16 -12 -17 4 -4 9 7 17 15 17 17 0 8 -8 3 -21 -13z"/>
<path d="M6595 1570 c-4 -6 -11 -7 -17 -4 -7 4 -8 2 -4 -5 6 -9 11 -9 22 0 14
11 18 19 10 19 -3 0 -8 -5 -11 -10z"/>
<path d="M2550 1560 c0 -5 5 -10 11 -10 5 0 7 5 4 10 -3 6 -8 10 -11 10 -2 0
-4 -4 -4 -10z"/>
<path d="M6755 1560 c3 -5 8 -10 11 -10 2 0 4 5 4 10 0 6 -5 10 -11 10 -5 0
-7 -4 -4 -10z"/>
<path d="M2636 1522 c-3 -5 1 -9 9 -9 8 0 12 4 9 9 -3 4 -7 8 -9 8 -2 0 -6 -4
-9 -8z"/>
<path d="M2486 1502 c-3 -5 1 -9 9 -9 8 0 12 4 9 9 -3 4 -7 8 -9 8 -2 0 -6 -4
-9 -8z"/>
<path d="M6333 1495 c0 -8 4 -12 9 -9 5 3 6 10 3 15 -9 13 -12 11 -12 -6z"/>
<path d="M6540 1486 c0 -2 8 -10 18 -17 15 -13 16 -12 3 4 -13 16 -21 21 -21
13z"/>
<path d="M6490 1460 c0 -5 5 -10 11 -10 5 0 7 5 4 10 -3 6 -8 10 -11 10 -2 0
-4 -4 -4 -10z"/>
<path d="M2590 1440 c0 -5 5 -10 11 -10 5 0 7 5 4 10 -3 6 -8 10 -11 10 -2 0
-4 -4 -4 -10z"/>
<path d="M6267 1439 c7 -7 15 -10 18 -7 3 3 -2 9 -12 12 -14 6 -15 5 -6 -5z"/>
<path d="M6390 1441 c0 -6 4 -13 10 -16 6 -3 7 1 4 9 -7 18 -14 21 -14 7z"/>
<path d="M6159 1438 c-5 -18 -6 -38 -1 -34 7 8 12 36 6 36 -2 0 -4 -1 -5 -2z"/>
<path d="M2650 1425 c0 -7 30 -13 34 -7 3 4 -4 9 -15 9 -10 1 -19 0 -19 -2z"/>
<path d="M2827 1419 c7 -7 15 -10 18 -7 3 3 -2 9 -12 12 -14 6 -15 5 -6 -5z"/>
<path d="M2890 1416 c0 -2 8 -10 18 -17 15 -13 16 -12 3 4 -13 16 -21 21 -21
13z"/>
<path d="M2750 1380 c0 -5 5 -10 11 -10 5 0 7 5 4 10 -3 6 -8 10 -11 10 -2 0
-4 -4 -4 -10z"/>
<path d="M6295 1379 c-3 -4 2 -6 10 -5 21 3 28 13 10 13 -9 0 -18 -4 -20 -8z"/>
<path d="M2835 1369 c-4 -6 -5 -12 -2 -15 2 -3 7 2 10 11 7 17 1 20 -8 4z"/>
<path d="M2916 1358 c3 -5 10 -6 15 -3 13 9 11 12 -6 12 -8 0 -12 -4 -9 -9z"/>
<path d="M6346 1362 c-3 -5 1 -9 9 -9 8 0 12 4 9 9 -3 4 -7 8 -9 8 -2 0 -6 -4
-9 -8z"/>
<path d="M2835 1321 c-3 -5 -2 -12 3 -15 5 -3 9 1 9 9 0 17 -3 19 -12 6z"/>
<path d="M6015 1319 c-3 -4 2 -6 10 -5 21 3 28 13 10 13 -9 0 -18 -4 -20 -8z"/>
<path d="M2935 1300 c-3 -5 -1 -10 4 -10 6 0 11 5 11 10 0 6 -2 10 -4 10 -3 0
-8 -4 -11 -10z"/>
<path d="M5886 1018 c3 -5 10 -6 15 -3 13 9 11 12 -6 12 -8 0 -12 -4 -9 -9z"/>
<path d="M3086 942 c-3 -5 1 -9 9 -9 8 0 12 4 9 9 -3 4 -7 8 -9 8 -2 0 -6 -4
-9 -8z"/>
<path d="M5850 940 c0 -5 5 -10 11 -10 5 0 7 5 4 10 -3 6 -8 10 -11 10 -2 0
-4 -4 -4 -10z"/>
<path d="M3136 882 c-3 -5 1 -9 9 -9 8 0 12 4 9 9 -3 4 -7 8 -9 8 -2 0 -6 -4
-9 -8z"/>
<path d="M3176 815 c-9 -26 -7 -32 5 -12 6 10 9 21 6 23 -2 3 -7 -2 -11 -11z"/>
<path d="M5730 799 c0 -5 5 -7 10 -4 6 3 10 8 10 11 0 2 -4 4 -10 4 -5 0 -10
-5 -10 -11z"/>
<path d="M3254 736 c1 -8 5 -18 8 -22 4 -3 5 1 4 10 -1 8 -5 18 -8 22 -4 3 -5
-1 -4 -10z"/>
<path d="M3296 742 c-3 -5 1 -9 9 -9 8 0 12 4 9 9 -3 4 -7 8 -9 8 -2 0 -6 -4
-9 -8z"/>
<path d="M5650 740 c0 -5 5 -10 11 -10 5 0 7 5 4 10 -3 6 -8 10 -11 10 -2 0
-4 -4 -4 -10z"/>
<path d="M3286 702 c-3 -5 1 -9 9 -9 8 0 12 4 9 9 -3 4 -7 8 -9 8 -2 0 -6 -4
-9 -8z"/>
<path d="M5696 698 c3 -4 11 -5 19 -1 21 7 19 12 -4 10 -11 0 -18 -5 -15 -9z"/>
<path d="M5756 698 c3 -5 10 -6 15 -3 13 9 11 12 -6 12 -8 0 -12 -4 -9 -9z"/>
<path d="M5610 679 c0 -5 5 -7 10 -4 6 3 10 8 10 11 0 2 -4 4 -10 4 -5 0 -10
-5 -10 -11z"/>
<path d="M3429 643 c-13 -16 -12 -17 4 -4 9 7 17 15 17 17 0 8 -8 3 -21 -13z"/>
<path d="M3436 622 c-2 -4 -1 -14 4 -22 7 -11 9 -9 7 8 -1 24 -3 26 -11 14z"/>
<path d="M5555 609 c-4 -6 -5 -12 -2 -15 2 -3 7 2 10 11 7 17 1 20 -8 4z"/>
<path d="M3540 566 c0 -2 8 -10 18 -17 15 -13 16 -12 3 4 -13 16 -21 21 -21
13z"/>
<path d="M3495 540 c3 -5 8 -10 11 -10 2 0 4 5 4 10 0 6 -5 10 -11 10 -5 0 -7
-4 -4 -10z"/>
<path d="M5490 540 c0 -5 5 -10 11 -10 5 0 7 5 4 10 -3 6 -8 10 -11 10 -2 0
-4 -4 -4 -10z"/>
<path d="M3646 522 c-3 -5 1 -9 9 -9 8 0 12 4 9 9 -3 4 -7 8 -9 8 -2 0 -6 -4
-9 -8z"/>
<path d="M3715 501 c-3 -5 -2 -12 3 -15 5 -3 9 1 9 9 0 17 -3 19 -12 6z"/>
<path d="M5454 502 c4 -3 14 -7 22 -8 9 -1 13 0 10 4 -4 3 -14 7 -22 8 -9 1
-13 0 -10 -4z"/>
<path d="M3690 481 c0 -6 4 -13 10 -16 6 -3 7 1 4 9 -7 18 -14 21 -14 7z"/>
<path d="M3550 477 c0 -2 6 -10 14 -16 11 -9 16 -9 22 1 4 7 4 10 -1 6 -4 -4
-14 -3 -22 3 -7 6 -13 9 -13 6z"/>
<path d="M4913 465 c0 -8 4 -12 9 -9 5 3 6 10 3 15 -9 13 -12 11 -12 -6z"/>
<path d="M3616 462 c-3 -4 4 -9 15 -9 23 -2 25 3 4 10 -8 4 -16 3 -19 -1z"/>
<path d="M4020 466 c0 -2 8 -10 18 -17 15 -13 16 -12 3 4 -13 16 -21 21 -21
13z"/>
<path d="M4986 458 c3 -4 9 -8 15 -8 5 0 9 4 9 8 0 5 -7 9 -15 9 -8 0 -12 -4
-9 -9z"/>
<path d="M5159 468 c-5 -18 -6 -38 -1 -34 7 8 12 36 6 36 -2 0 -4 -1 -5 -2z"/>
<path d="M5370 460 c0 -5 5 -10 11 -10 5 0 7 5 4 10 -3 6 -8 10 -11 10 -2 0
-4 -4 -4 -10z"/>
<path d="M3999 458 c-5 -18 -6 -38 -1 -34 7 8 12 36 6 36 -2 0 -4 -1 -5 -2z"/>
<path d="M4694 446 c1 -8 5 -18 8 -22 4 -3 5 1 4 10 -1 8 -5 18 -8 22 -4 3 -5
-1 -4 -10z"/>
<path d="M4814 446 c1 -8 5 -18 8 -22 4 -3 5 1 4 10 -1 8 -5 18 -8 22 -4 3 -5
-1 -4 -10z"/>
<path d="M4119 433 c-13 -17 -13 -17 6 -3 11 8 22 16 24 17 2 2 0 3 -6 3 -6 0
-17 -8 -24 -17z"/>
<path d="M4239 433 c-13 -17 -13 -17 6 -3 11 8 22 16 24 17 2 2 0 3 -6 3 -6 0
-17 -8 -24 -17z"/>
<path d="M4353 435 c0 -8 4 -12 9 -9 5 3 6 10 3 15 -9 13 -12 11 -12 -6z"/>
<path d="M4514 442 c4 -3 14 -7 22 -8 9 -1 13 0 10 4 -4 3 -14 7 -22 8 -9 1
-13 0 -10 -4z"/>
<path d="M4626 442 c-3 -5 1 -9 9 -9 8 0 12 4 9 9 -3 4 -7 8 -9 8 -2 0 -6 -4
-9 -8z"/>
<path d="M4730 439 c0 -5 5 -7 10 -4 6 3 10 8 10 11 0 2 -4 4 -10 4 -5 0 -10
-5 -10 -11z"/>
<path d="M4930 441 c0 -6 4 -13 10 -16 6 -3 7 1 4 9 -7 18 -14 21 -14 7z"/>
<path d="M5455 440 c-3 -5 -1 -10 4 -10 6 0 11 5 11 10 0 6 -2 10 -4 10 -3 0
-8 -4 -11 -10z"/>
<path d="M3730 419 c0 -5 5 -7 10 -4 6 3 10 8 10 11 0 2 -4 4 -10 4 -5 0 -10
-5 -10 -11z"/>
<path d="M3879 428 c-5 -18 -6 -38 -1 -34 7 8 12 36 6 36 -2 0 -4 -1 -5 -2z"/>
<path d="M3945 420 c-3 -6 1 -7 9 -4 18 7 21 14 7 14 -6 0 -13 -4 -16 -10z"/>
<path d="M5250 419 c0 -5 5 -7 10 -4 6 3 10 8 10 11 0 2 -4 4 -10 4 -5 0 -10
-5 -10 -11z"/>
<path d="M5294 422 c4 -3 14 -7 22 -8 9 -1 13 0 10 4 -4 3 -14 7 -22 8 -9 1
-13 0 -10 -4z"/>
<path d="M3774 396 c1 -8 5 -18 8 -22 4 -3 5 1 4 10 -1 8 -5 18 -8 22 -4 3 -5
-1 -4 -10z"/>
<path d="M3990 402 c0 -5 7 -9 15 -9 8 0 12 4 9 9 -3 4 -9 8 -15 8 -5 0 -9 -4
-9 -8z"/>
<path d="M4224 402 c4 -3 14 -7 22 -8 9 -1 13 0 10 4 -4 3 -14 7 -22 8 -9 1
-13 0 -10 -4z"/>
<path d="M4355 400 c3 -5 8 -10 11 -10 2 0 4 5 4 10 0 6 -5 10 -11 10 -5 0 -7
-4 -4 -10z"/>
<path d="M4573 391 c0 -11 5 -18 9 -15 4 3 5 11 1 19 -7 21 -12 19 -10 -4z"/>
<path d="M4813 391 c0 -11 5 -18 9 -15 4 3 5 11 1 19 -7 21 -12 19 -10 -4z"/>
<path d="M5175 400 c-3 -5 -1 -10 4 -10 6 0 11 5 11 10 0 6 -2 10 -4 10 -3 0
-8 -4 -11 -10z"/>
<path d="M5055 391 c-3 -5 -2 -12 3 -15 5 -3 9 1 9 9 0 17 -3 19 -12 6z"/>
<path d="M4495 380 c3 -5 8 -10 11 -10 2 0 4 5 4 10 0 6 -5 10 -11 10 -5 0 -7
-4 -4 -10z"/>
<path d="M4615 380 c3 -5 8 -10 11 -10 2 0 4 5 4 10 0 6 -5 10 -11 10 -5 0 -7
-4 -4 -10z"/>
<path d="M4650 380 c0 -5 5 -10 11 -10 5 0 7 5 4 10 -3 6 -8 10 -11 10 -2 0
-4 -4 -4 -10z"/>
<path d="M4686 378 c3 -5 10 -6 15 -3 13 9 11 12 -6 12 -8 0 -12 -4 -9 -9z"/>
<path d="M4735 380 c3 -5 8 -10 11 -10 2 0 4 5 4 10 0 6 -5 10 -11 10 -5 0 -7
-4 -4 -10z"/>
<path d="M4855 380 c3 -5 8 -10 11 -10 2 0 4 5 4 10 0 6 -5 10 -11 10 -5 0 -7
-4 -4 -10z"/>
<path d="M4890 380 c0 -5 5 -10 11 -10 5 0 7 5 4 10 -3 6 -8 10 -11 10 -2 0
-4 -4 -4 -10z"/>
<path d="M4926 378 c3 -5 10 -6 15 -3 13 9 11 12 -6 12 -8 0 -12 -4 -9 -9z"/>
<path d="M4975 380 c3 -5 8 -10 11 -10 2 0 4 5 4 10 0 6 -5 10 -11 10 -5 0 -7
-4 -4 -10z"/>
<path d="M5015 380 c-3 -5 -1 -10 4 -10 6 0 11 5 11 10 0 6 -2 10 -4 10 -3 0
-8 -4 -11 -10z"/>
<path d="M5213 375 c0 -8 4 -12 9 -9 5 3 6 10 3 15 -9 13 -12 11 -12 -6z"/>
<path d="M3995 371 c-3 -5 -2 -12 3 -15 5 -3 9 1 9 9 0 17 -3 19 -12 6z"/>
<path d="M4235 371 c-3 -5 -2 -12 3 -15 5 -3 9 1 9 9 0 17 -3 19 -12 6z"/>
<path d="M4315 360 c-3 -5 -1 -10 4 -10 6 0 11 5 11 10 0 6 -2 10 -4 10 -3 0
-8 -4 -11 -10z"/>
</g>
</svg>
