<svg width="47" height="49" viewBox="0 0 47 49" fill="none" xmlns="http://www.w3.org/2000/svg">
<g filter="url(#filter0_i_89_3)">
<path d="M45.8171 10.4615C44.2266 11.2072 42.518 11.7111 40.7217 11.9389C42.5751 10.7654 43.9617 8.91848 44.6228 6.74274C42.8815 7.83717 40.9757 8.60754 38.9883 9.02034C37.6519 7.5104 35.8817 6.50959 33.9526 6.17329C32.0235 5.83699 30.0434 6.18401 28.3198 7.16047C26.5963 8.13694 25.2255 9.68822 24.4205 11.5735C23.6155 13.4587 23.4212 15.5725 23.8678 17.5865C20.3395 17.3991 16.8878 16.4287 13.7369 14.7383C10.5859 13.048 7.80603 10.6754 5.57769 7.77471C4.81576 9.16546 4.37765 10.7779 4.37765 12.4952C4.3768 14.0411 4.73658 15.5634 5.42507 16.9269C6.11356 18.2904 7.10948 19.453 8.32445 20.3116C6.9154 20.2641 5.53745 19.8613 4.30527 19.1365V19.2574C4.30513 21.4256 5.01392 23.5272 6.3114 25.2054C7.60887 26.8836 9.4151 28.0351 11.4236 28.4645C10.1165 28.8389 8.74606 28.894 7.41585 28.6258C7.98253 30.4914 9.08637 32.1229 10.5728 33.2917C12.0593 34.4605 13.854 35.1082 15.7056 35.1441C12.5624 37.7551 8.68044 39.1714 4.68433 39.1652C3.97646 39.1654 3.26919 39.1217 2.56616 39.0342C6.62244 41.7939 11.3442 43.2585 16.1666 43.2528C32.491 43.2528 41.4151 28.9463 41.4151 16.5384C41.4151 16.1353 41.4055 15.7282 41.3884 15.325C43.1243 13.9967 44.6226 12.3519 45.8133 10.4675L45.8171 10.4615Z" fill="#485B7C"/>
</g>
<defs>
<filter id="filter0_i_89_3" x="0.781372" y="0.510742" width="45.7158" height="52.3735" filterUnits="userSpaceOnUse" color-interpolation-filters="sRGB">
<feFlood flood-opacity="0" result="BackgroundImageFix"/>
<feBlend mode="normal" in="SourceGraphic" in2="BackgroundImageFix" result="shape"/>
<feColorMatrix in="SourceAlpha" type="matrix" values="0 0 0 0 0 0 0 0 0 0 0 0 0 0 0 0 0 0 127 0" result="hardAlpha"/>
<feOffset dy="4"/>
<feGaussianBlur stdDeviation="7.5"/>
<feComposite in2="hardAlpha" operator="arithmetic" k2="-1" k3="1"/>
<feColorMatrix type="matrix" values="0 0 0 0 0 0 0 0 0 0 0 0 0 0 0 0 0 0 0.2 0"/>
<feBlend mode="normal" in2="shape" result="effect1_innerShadow_89_3"/>
</filter>
</defs>
</svg>
