<svg width="38" height="30" viewBox="0 0 38 30" fill="none" xmlns="http://www.w3.org/2000/svg">
<path d="M8.83007 5.43573C11.4258 3.41425 14.7539 1.87499 18.75 1.87499C23.4844 1.87499 27.2754 4.03358 30.0351 6.59765C32.7773 9.14061 34.6113 12.1348 35.4785 14.2793C35.6719 14.7422 35.6719 15.2578 35.4785 15.7207C34.6933 17.6133 33.1172 20.2793 30.7969 22.6582L36.9609 27.4863C37.5703 27.9668 37.6816 28.8516 37.2012 29.4609C36.7207 30.0703 35.8359 30.1816 35.2266 29.7012L0.538818 2.51308C-0.0724324 2.03378 -0.1796 1.15018 0.299521 0.538818C0.7787 -0.0724324 1.66229 -0.1796 2.27401 0.299521L8.83007 5.43573ZM13.0723 8.75976L18.3633 12.9082C18.6094 12.4101 18.75 11.8476 18.75 11.1973C18.75 10.5762 18.5215 9.94335 18.2578 9.39843C18.4219 9.38085 18.5859 9.32226 18.75 9.32226C21.8555 9.32226 24.375 11.8418 24.375 14.9473C24.375 15.8027 24.2051 16.5644 23.8535 17.2558L26.168 19.0254C26.8183 17.8301 27.1875 16.459 27.1875 14.9473C27.1875 10.3418 23.4082 6.50975 18.75 6.50975C16.5644 6.50975 14.5664 7.39452 13.0723 8.75976ZM18.75 28.125C14.0156 28.125 10.2246 25.9687 7.46483 23.4023C4.72382 20.8066 2.891 17.8125 2.01913 15.7207C1.82694 15.2578 1.82694 14.7422 2.01913 14.2793C2.57811 12.9375 3.53261 11.2031 4.86854 9.46288L10.3945 13.8164C10.3418 14.2031 10.3125 14.5957 10.3125 14.9473C10.3125 19.6582 14.0918 23.4375 18.75 23.4375C19.8457 23.4375 20.8945 23.2266 21.8555 22.8457L26.1445 26.2207C24.0176 27.3691 21.5508 28.125 18.75 28.125Z" fill="#C9C9C9"/>
</svg>
