<svg width="30" height="30" viewBox="0 0 30 30" fill="none" xmlns="http://www.w3.org/2000/svg">
<g clip-path="url(#clip0_5_673)">
<path d="M29.3007 15.2806C29.3007 14.0516 29.201 13.1547 28.9852 12.2245H14.9502V17.772H23.1884C23.0224 19.1506 22.1255 21.2268 20.1323 22.6219L20.1044 22.8077L24.542 26.2454L24.8494 26.2761C27.6729 23.6684 29.3007 19.8316 29.3007 15.2806Z" fill="#4285F4"/>
<path d="M14.9502 29.8969C18.9862 29.8969 22.3745 28.5681 24.8494 26.2761L20.1323 22.6219C18.87 23.5023 17.1758 24.1168 14.9502 24.1168C10.9972 24.1168 7.64211 21.5092 6.44612 17.905L6.27081 17.9198L1.65653 21.4909L1.59619 21.6586C4.05436 26.5418 9.10363 29.8969 14.9502 29.8969Z" fill="#34A853"/>
<path d="M6.44585 17.905C6.13028 16.9748 5.94765 15.9782 5.94765 14.9485C5.94765 13.9186 6.13028 12.9221 6.42925 11.992L6.42089 11.7939L1.74879 8.1655L1.59593 8.23821C0.582801 10.2646 0.00146484 12.5401 0.00146484 14.9485C0.00146484 17.3568 0.582801 19.6323 1.59593 21.6586L6.44585 17.905Z" fill="#FBBC05"/>
<path d="M14.9502 5.78004C17.7571 5.78004 19.6506 6.99252 20.7302 8.00576L24.949 3.8866C22.358 1.47824 18.9862 0 14.9502 0C9.10363 0 4.05436 3.35508 1.59619 8.23821L6.42951 11.992C7.64211 8.38775 10.9972 5.78004 14.9502 5.78004Z" fill="#EB4335"/>
</g>
<defs>
<clipPath id="clip0_5_673">
<rect width="29.316" height="30" fill="white"/>
</clipPath>
</defs>
</svg>
