<svg width="76" height="79" viewBox="0 0 76 79" fill="none" xmlns="http://www.w3.org/2000/svg">
<g clip-path="url(#clip0_1_134)">
<g clip-path="url(#clip1_1_134)">
<path d="M37.6899 0.109985C16.9782 0.109985 0.189941 16.8983 0.189941 37.61C0.189941 58.3217 16.9782 75.11 37.6899 75.11C58.4017 75.11 75.1899 58.3217 75.1899 37.61C75.1899 16.8983 58.4017 0.109985 37.6899 0.109985ZM37.6899 68.0787C20.8618 68.0787 7.22119 54.4381 7.22119 37.61C7.22119 20.7819 20.8618 7.14124 37.6899 7.14124C54.5181 7.14124 68.1587 20.7819 68.1587 37.61C68.1587 54.4381 54.5181 68.0787 37.6899 68.0787ZM28.3149 21.2037L56.4399 37.61L28.3149 54.0162V21.2037Z" fill="white"/>
</g>
</g>
<defs>
<clipPath id="clip0_1_134">
<rect width="75" height="75" fill="white" transform="translate(0.189941 0.109985)"/>
</clipPath>
<clipPath id="clip1_1_134">
<rect width="75" height="75" fill="white" transform="translate(0.189941 0.109985)"/>
</clipPath>
</defs>
</svg>
